<?xml version="1.0" encoding="iso-8859-1"?>
<!-- Generator: Adobe Illustrator 19.0.0, SVG Export Plug-In . SVG Version: 6.00 Build 0)  -->
<svg version="1.1" id="Capa_1" xmlns="http://www.w3.org/2000/svg" xmlns:xlink="http://www.w3.org/1999/xlink" x="0px" y="0px"
	 viewBox="0 0 469.333 469.333" style="enable-background:new 0 0 469.333 469.333;" xml:space="preserve">
<path style="fill:#4CAF50;" d="M468.523,6.592C466.881,2.603,462.977,0,458.667,0C44.801,0,0.001,171.563,0.001,245.333
	c0,95.701,72.875,160,181.333,160c136.981,0,165.675-130.347,181.077-200.384c14.976-71.296,51.157-136.384,103.787-186.752
	C469.249,15.147,470.166,10.581,468.523,6.592z"/>
<path style="fill:#388E3C;" d="M10.667,469.333c-5.888,0-10.667-4.779-10.667-10.667c0-63.424,109.973-266.923,283.349-350.933
	c5.312-2.56,11.691-0.363,14.251,4.949s0.363,11.691-4.949,14.251l0,0C117.569,211.776,21.334,408.811,21.334,458.667
	C21.334,464.555,16.555,469.333,10.667,469.333z"/>
<path d="M181.334,405.333c-108.459,0-181.333-64.299-181.333-160C0.001,171.563,44.694,0,458.667,0c4.352,0,8.277,2.667,9.899,6.699
	c1.621,4.053,0.619,8.683-2.517,11.691c-52.864,50.432-88.683,114.923-103.595,186.453
	C347.03,274.987,318.358,405.333,181.334,405.333z M433.046,21.611C291.329,24.619,21.334,55.381,21.334,245.333
	c0,82.944,64.299,138.667,160,138.667c110.613,0,140.715-94.784,160.256-183.616C355.585,133.248,387.03,71.915,433.046,21.611z"/>
<path d="M10.667,469.333c-5.888,0-10.667-4.779-10.667-10.667c0-63.424,109.973-266.923,283.349-350.933
	c5.312-2.56,11.669-0.363,14.251,4.928c2.56,5.312,0.363,11.691-4.949,14.251C117.569,211.776,21.334,408.811,21.334,458.667
	C21.334,464.555,16.555,469.333,10.667,469.333z"/>
<g>
</g>
<g>
</g>
<g>
</g>
<g>
</g>
<g>
</g>
<g>
</g>
<g>
</g>
<g>
</g>
<g>
</g>
<g>
</g>
<g>
</g>
<g>
</g>
<g>
</g>
<g>
</g>
<g>
</g>
</svg>
